<?xml version="1.0" encoding="UTF-8"?>
<svg id="Layer_1" data-name="Layer 1" xmlns="http://www.w3.org/2000/svg" viewBox="0 0 1259.91 184.38">
  <defs>
    <style>
      .cls-1 {
        fill: #fff;
        stroke-width: 0px;
      }
    </style>
  </defs>
  <path class="cls-1" d="m614.68,111.81c.68,0,.91.68.91,1.59,0,1.59-.68,3.86-1.36,5.22-2.72,5.67-5.22,12.93-8.85,18.37-3.4,4.99-7.94,10.89-13.38,10.89-1.59,0-3.18-.45-4.99-1.81-4.54-3.18-9.07-14.52-12.25-19.28-2.5-3.86-3.63-16.56-5.9-20.42-.68.68-6.81,14.75-7.26,15.88-8.17,14.29-11.8,11.8-24.5,22-1.59,1.36-4.08,2.04-6.81,2.04-3.63,0-7.49-1.13-9.07-2.95-4.54-3.86-4.99-9.07-4.99-14.07v-5.22c.45-8.62,5.22-14.07,7.03-22.46,1.36-3.86,2.5-4.99,5.9-7.49,3.63-3.18,6.58-8.62,12.02-9.3,0,0,6.35-2.04,9.98-2.04,1.59,0,2.72.45,2.72,1.59,0,2.27-3.4,4.99-4.54,6.58-1.59,2.5-3.4,4.31-4.54,6.13-3.18,4.31-4.76,10.43-5.9,15.43-.91,3.86-1.81,6.81-1.81,9.98,0,1.82.45,3.63,1.13,5.9,14.75-6.13,21.55-18.15,27.9-31.08-1.59-3.18-4.08-6.13-4.54-12.25-.23-.91-.23-1.81-.23-2.5,0-3.86,1.81-6.13,4.99-9.07,3.86-3.18,6.81-7.03,12.25-7.03,1.36,0,4.54,4.99,4.54,12.02,0,2.5-.45,5.44-1.59,8.39,0,.45,2.72,25.18,7.03,30.63,3.63,4.31,5.44,7.94,7.71,13.38,5.44-.68,6.35-3.63,9.3-7.94,2.95-3.63,4.76-8.39,7.26-10.21.68-.68,1.36-.91,1.82-.91Z"/>
  <path class="cls-1" d="m683.64,141.3c0,5.22-1.59,5.44-4.08,9.07-3.63,5.67-5.22,6.58-10.21,10.89-2.5,1.81-6.81,2.72-8.85,2.72-4.08,0-14.97-13.16-17.47-18.15-2.27-3.63-3.63-7.71-4.99-12.02-.23-.91-.23-2.5-.23-4.08v-5.22c0-2.5-.23-4.76-.91-5.9-4.76,4.31-7.26,14.29-7.94,20.64-1.36,7.94-4.31,11.8-12.02,14.52-1.59.45-4.76,2.27-6.8,2.27-.45,0-1.13,0-1.36-.45-.68-.68-.91-1.36-.91-2.5,0-2.27,1.13-5.22,1.36-6.58,1.82-8.39.91-14.52,2.27-22.69,0,0,0-1.81-.45-1.81-2.04,0-3.4-.23-3.4-1.59,0-2.5,3.86-9.53,5.44-11.8.45-4.54,1.81-10.66,2.95-15.2,1.36-9.3,2.5-16.56,4.31-25.63.68-4.76,2.04-12.25,3.63-16.56,1.36-4.76.91-6.12,2.04-10.43.68-4.31,2.5-7.71,4.31-11.57,1.13-2.95,1.82-6.8,4.99-8.39,1.13-.68,2.5-.91,3.4-.91,9.53,0,12.25,27.22,12.25,33.35,0,11.57-8.62,20.64-15.43,29.94-.45,5.22-1.59,10.43-2.27,15.2-.68,6.13-2.27,10.89-2.27,13.38,1.13-1.13,2.72-1.59,3.4-2.5,2.04-2.72,1.81-7.03,3.63-10.21,3.18-5.44,7.49-12.48,12.48-15.88,2.72-1.59,6.58-3.18,9.98-3.18,2.27,0,4.31.68,5.67,2.5s1.82,3.86,1.82,5.67c0,5.44-4.54,10.66-7.94,13.16-4.31,3.18-12.02,8.62-12.02,8.62,0,5.9,9.53,23.37,13.38,28.36,1.81,2.5,5.9,4.31,9.07,4.99.23,0,.45.23.91.23,9.53,0,4.08-.68,11.8-4.31.23.68.45,1.36.45,2.04Zm-47.19-66.24c4.54-6.81,9.75-16.79,9.75-25.41,0-2.04-.45-3.63-1.36-4.99-.45-.68-.91-.91-1.36-.91-2.27,0-3.4,7.49-4.08,10.44-.68,7.49-2.04,14.07-2.95,20.87Z"/>
  <path class="cls-1" d="m949.49,34.42c0,.85-.21,1.48-.63,2.11-2.11,2.54-9.3,3.81-15.22,3.81-3.81,0-7.19-.42-8.46-1.48-.63-.42-.85-2.11-.85-4.44,0-2.11.21-4.86.21-7.4,0-3.59-.21-6.55-1.9-6.55-2.75.21-8.46,7.4-9.51,9.51-4.44,8.03-10.57,12.68-16.28,20.08-2.75,3.38-4.02,6.13-4.02,8.88,0,4.02,3.17,7.61,9.3,10.99,10.78,6.13,27.06,21.35,35.09,29.38,5.71,5.5,8.24,10.15,8.24,16.7,0,3.17-.63,6.98-1.69,11.2-3.81,14.8-11.2,22.83-24.73,31.29-5.28,3.38-10.78,5.07-16.49,5.07-3.81,0-9.94-1.27-13.95-2.96-12.26-4.65-17.12-16.49-24.94-27.48-3.38-4.44-10.78-6.98-10.78-12.89,0-1.27.63-3.17,3.8-3.17,11.84,0,20.29,24.31,41.85,24.31,7.4,0,14.16-4.23,20.5-14.8,2.75-4.02,3.81-7.4,3.81-10.57,0-13.32-7.4-24.31-18.6-32.13-9.51-6.55-33.82-11.2-33.82-23.46v-1.27c.63-5.28,4.02-11.84,6.55-16.49,5.28-9.93,16.28-19.02,24.31-26.85,4.44-4.02,9.51-7.82,14.16-11.2l13.74-.42c3.59,1.48,5.5,8.25,7.82,11.63,2.33,3.17,12.47,13.11,12.47,18.6Z"/>
  <path class="cls-1" d="m1020.93,52.39c-5.9,3.67-6.97,5.53-10.16,7.6-10.03,6.53-29.76,7.87-32.54,8.04-.63,0-1.06.21-1.48.21-1.27,6.55-2.33,12.68-2.75,13.95l-3.17,44.6c0,2.54-.21,6.34-.21,9.93,0,5.71.42,11.63,2.75,14.37,5.71-6.34,10.15-11.84,14.8-19.03l.85-1.69c2.75-5.07,10.36-16.49,16.7-23.89.21.63,1.69,2.11,1.69,2.96,0,8.88-9.51,22.2-12.89,29.17-3.17,4.23-16.7,34.67-19.24,35.94-1.9,1.27-3.81,1.9-5.71,1.9-3.81,0-7.61-1.9-10.99-3.81-5.07-2.75-6.13-5.07-6.13-10.78-.21-1.69-.21-3.17-.21-4.86,0-10.57,2.54-21.35,2.54-32.13,0-14.59-2.33-28.54-2.33-43.34,0-6.55.42-11.84.85-16.07-3.35-.83-7.46-1.55-12.18-1.74-7.12-.3-13.12.7-17.51,1.8-2.25-1.55-2.53-2.57-2.43-3.17.23-1.49,2.96-2.09,11.19-4.49,2.41-.7,4.35-1.29,5.51-1.64,1.59-.31,3.46-.56,5.56-.61,3.15-.08,5.85.3,7.95.77l2.96.42c.63-3.38,1.27-6.34,1.48-9.3,1.06-16.28,1.69-29.17,11.63-39.74,4.02-4.44,6.98-6.34,9.3-6.34,3.59,0,5.5,4.65,6.98,12.05.85,4.44,1.27,8.46,1.27,12.26,0,8.67-2.11,16.7-5.71,29.59,7.1,1.7,11.42.45,14.08-1.06,6.32-3.59,8.31-11.49,11.98-10.84,1.1.2,2.17,1.13,2.44,2.14.71,2.61-3.87,5.32-3.25,6.49.46.85,3.42.38,6.23-.64,7.49-2.73,9.62-7.87,13.27-6.99,1.43.34,2.76,1.54,2.85,2.71.14,1.81-2.69,3.2-5.96,5.24Z"/>
  <path class="cls-1" d="m1044.6,75.43c0,11.42-13.74,27.69-16.7,30.65-2.11,1.9-8.67,6.13-14.37,9.51l-1.27.63c1.69,5.5,5.71,10.78,10.57,11.63,3.17.63,6.34,1.06,9.51,1.06,4.23,0,8.46-.63,12.26-2.33,4.02-1.69,9.3-7.82,13.32-10.36,1.9-1.27,4.44-5.07,7.19-5.07.21,0,.63.21.85.21,0,8.46-19.03,22.41-25.37,25.58-8.03,3.38-10.57,5.5-18.6,5.5h-2.33c-10.57-.63-22.83-11.84-22.83-30.02,0-2.32.21-4.86.63-7.4,1.9-10.78,8.46-23.25,17.12-30.44,6.13-5.07,11.84-12.47,20.5-12.47,1.69,0,3.59.42,5.71,1.06,0,0,3.81,5.28,3.81,12.26Zm-33.19,35.09c4.02-3.17,8.67-6.98,10.78-9.51,2.96-3.59,5.92-12.05,5.92-16.7,0-1.27-.21-2.33-.63-2.75-1.48-1.27-4.44-2.54-7.19-2.54-1.48,0-2.96.42-4.02,1.48-4.23,4.23-5.07,12.47-5.07,19.87,0,3.38.21,6.77.21,9.3v.85Z"/>
  <path class="cls-1" d="m1113.72,75.85c4.02,0,7.61,1.48,7.61,5.92.63,1.48.63,17.55,1.06,19.24l1.9,8.45c0,2.33,2.96,8.03,5.28,8.03,5.28,0,9.93-6.34,11.2-6.34.42.42,1.48,1.48,1.48,2.12,0,5.5-13.74,17.54-18.6,17.54-5.5-.63-6.13-5.71-8.88-10.36-2.33-3.38-2.33-10.15-5.28-13.11-5.92,8.88-10.78,17.76-19.87,24.1-4.65,3.17-9.3,5.92-14.8,5.92-4.23,0-8.88-1.69-14.37-5.71-2.54-1.69-3.38-4.23-3.38-7.4,0-5.92,3.17-13.32,4.44-18.6,2.11-8.24,19.24-23.89,29.81-23.89.63,0,1.06.21,1.48.21,2.75.21,10.15,1.69,10.15,4.65,0,.21,0,.63-.21.85-.85,1.9-14.16,9.3-17.33,11.2-.21.21-.42.42-.63.42-1.48.85-7.4,7.19-8.24,11.63-.21.85-.21,1.69-.21,2.33,0,4.23,2.11,7.19,6.76,7.19,9.93-.21,17.97-9.09,23.46-16.91,1.06-2.75,1.48-5.07,1.48-7.19,0-6.13-3.8-9.72-4.23-16.7.21-1.69,5.28-3.59,9.93-3.59Z"/>
  <path class="cls-1" d="m1227.23,140.11c-4.65,0-9.3-2.54-10.78-3.8-4.44-3.59-3.38-18.18-3.8-23.89,0-2.11,0-9.72-3.59-9.72-2.33,0-5.71,5.71-6.13,7.4-.63,2.11-.85,4.86-.85,7.4,0,2.75.21,5.28.21,7.82,0,1.9-.21,3.8-.42,5.5-.21,2.54,0,9.51-1.9,11.2-.63.63-1.27.85-1.9.85-2.33,0-4.86-2.75-6.34-3.81-4.02-2.75-4.86-3.38-4.86-8.24v-.85c-.42-3.17-.63-5.71-.63-8.67v-2.11c.21-4.23,1.48-9.72,1.48-14.59,0-2.32-.42-4.65-1.69-6.55-2.75,0-9.09,6.55-11.21,16.07-2.54,11.41-.42,26.64-2.54,27.69-2.75,1.27-5.71,2.11-8.45,2.11-4.23,0-8.03-1.9-9.51-5.92-1.48-4.02-1.9-9.3-1.9-14.8,0-9.51,1.48-20.08,2.11-26.85.21-.42.42-1.48.42-2.32,0-1.06-.42-2.12-1.06-2.12-1.06,0-.63,6.55-4.65,13.53-2.11,4.23-7.61,13.95-10.99,13.95-1.06,0-2.33-.85-2.33-2.75,0-.42.21-1.06.42-1.9.42-1.06,4.02-5.28,4.86-6.34,1.69-2.11,2.33-2.96,3.38-5.5,2.32-5.92,3.17-12.68,6.98-17.76,2.11-3.38,2.11-14.8,11.84-14.8,1.9,0,12.26,3.8,12.26,12.47,0,3.17-.63,10.36-1.06,17.76,3.8-6.98,7.82-14.59,13.95-15.01,2.33-.42,5.92-1.9,8.88-1.9,1.48,0,2.75.42,3.8,1.48,2.96,4.02,1.06,10.78,2.33,15.43,2.32-1.69,4.02-4.86,7.82-7.19.85-.63,3.17-1.27,5.07-1.27.85,0,1.48.21,1.9.42,1.27.63,3.59,4.86,3.59,6.13.85,5.28,2.12,10.78,3.17,16.07,0,.21.21.63.21,1.06,1.26,10.84,4.83,12.74,6.14,13.2,6.02,2.12,16.21-7.65,25.9-24.53,1.71-1.98,2.2-2.13,2.37-2.02,1.25.75-4.91,19.47-20.26,31.61-2.89,2.29-5.6,3.98-7.82,5.21-1.03.36-2.56.85-4.44.85Z"/>
  <path class="cls-1" d="m331.81,16.77c-.35-9-54.7-13.63-68.61-14.82-59.86-5.1-101.83.56-157.8,8.11-20.79,2.81-38.23,5.78-38.19,9.09.03,2.04,6.75,4.58,12.84,4.47,4.54-.08,7.89-1.62,8.57-1.92,13.11-5.84,62.95-11.22,82.21-13.92,30.1-4.21,53.16-2.85,71.08-1.79,18.4,1.09,61.37,4.87,61.54,11.14.16,5.99-38.74,11.49-52.03,13.37-59.96,8.48-122.01,6.08-122.48-.06-.04-.47.29-.83.46-1.01,7.55-8.08,25.54-10.13,35.96-11.39,9.38-1.13,32.73-4.05,52.69-1.26,2.44.34,4.28.69,4.34,1.34.26,2.83-33,8.88-33.8,6.14-.3-1.01,4.04-2.47,3.69-3.69-.55-1.95-12.71-2.13-14.81,2.68-.64,1.46-.18,3.02,0,3.49,4.48,11.42,88.85-5.17,88.39-9.1-.02-.21-.61-.49-1.78-1.04-3.84-1.81-7.35-1.99-7.95-2.03-14.03-.78-36.79-8.19-79.63-3.87-14.31,1.44-25.75,3.68-38.07,6.09-7.32,1.43-14.42,3.09-28.63,6.4-19.62,4.57-20.06,5.03-20.1,5.48-.48,5.41,54.16,18.88,113.3,20.1,0,0,48.46,1,117.55-24.37,3.96-1.45,11.37-4.29,11.24-7.63Z"/>
  <path class="cls-1" d="m58.55,61.83c-2.57-1.86-6.5-4.11-11.59-4.78-5.39-.71-10.95.52-11.33-.77-.26-.9,2.31-1.86,2.07-3.29-.21-1.23-2.44-2.29-4.13-1.84-1.91.51-2.75,2.85-3.22,3.88-2.96,6.47-11.48,4.88-17.31,10.42-6.68,6.34-7.24,19.58-4.15,28.12,1.34,3.69,3.87,7.91,2.88,8.65-1.15.86-5.18-4.46-8.99-3.22-1.31.43-2.62,1.63-2.77,3-.16,1.41.95,2.68,7.99,8.1,3.35,2.58,4.99,3.77,4.99,3.77,2.35,1.71,5.67,4.08,9.79,6.88,6.41,2.44,13.14,4.81,20.17,7.06,14.91,4.78,29.1,8.36,42.31,11.05-1.36-1.79-2.75-3.76-4.12-5.91-1.85-2.89-3.39-5.66-4.68-8.25-15.93-2.55-27.4-8.19-34.34-12.36-10.32-6.2-19.94-11.98-22.02-22.69-1.24-6.39-.02-15.72,6.72-21.01,7.92-6.22,18.44-2.91,21.01-2.1,6.63,2.09,10.83,6.21,12.76,8.4-.68-4.37-1.36-8.74-2.05-13.11Z"/>
  <path class="cls-1" d="m489.47,30.37c-4.29-5.65-7.54-13.02-15.43-15.88-1-.36-9.09-3.15-17.25.74-4.11,1.96-7.36,5.22-12.66,15.28-4.56,8.65-9.07,17.2-12.12,31.23-3.21,14.78-5.86,26.97.37,38.78,1.59,3.01,6.11,11.6,12.7,11.92,11.67.58,25.28-24.83,18.93-35.89-1.4-2.44-4.39-4.97-6.31-4.34-3.4,1.12-1.14,11.42-6.53,14.38-.35.19-1.91,1-3.42.49-4.32-1.47-4.1-12.47-4.03-15.82.25-12.56,4.66-22.48,9.11-32.52.33-.74.85-1.91,1.7-3.38,3.13-5.34,6.88-11.74,11.57-11.56,7.64.29,12.24,17.95,16.11,30.4,4.08,13.16,4.54,26.54,4.54,39.25,0,11.8-2.5,20.19-9.07,30.4-6.81,10.89-12.48,21.32-22,30.4-4.08,3.86-10.89,11.12-16.79,11.12h-.91c-5.22-.68-8.39-8.39-10.66-12.93-7.71-15.88-10.89-34.03-10.89-52.4,0-12.25,1.36-24.5,3.86-36.07,2.5-10.89,7.71-22.69,13.16-32.67.83-1.53,4.49-5.56,8.62-11.85,2.55-3.89,4.47-7.19,5.69-9.38,1.71-3.29,2.25-4.59,2.31-5.03.02-.11.1-.81.2-1.2.01-.05.07-.21.08-.43.01-.46.11-.55.11-.91,0-.68-.23-1.13-.23-1.82-25.64,0-46.96,31.08-50.14,53.31-1.82,13.16-5.44,26.54-5.44,40.61v4.08c0,12.93.91,27.22,3.86,39.47,3.4,14.07,14.29,23.82,26.09,31.08,4.31,2.72,9.07,3.63,14.07,3.63,9.07,0,18.6-3.4,26.09-6.81,12.02-5.9,23.14-16.11,32.67-25.63,9.98-9.98,13.38-21.32,13.38-33.57,0-21.32-9.07-60.34-21.32-76.45Z"/>
  <path class="cls-1" d="m807.32,157.33l-4.64,1.35c-6.38,0-11.22-5.22-13.93-9.28-4.06-4.84-8.7-8.9-12.77-13.54-4.45,5.03-9.67,7.93-15.28,11.41-5.61,3.48-13.93,11.41-20.5,11.41s-14.7-9.09-19.34-13.35c-3.29-3.09-4.64-6.77-4.64-11.02,0-12.18,11.8-27.46,18.57-35.01,3.29-3.68,6.38-7.74,9.28-11.6-6.19-8.12-13.35-17.21-13.35-27.08,0-25.14,21.47-41.39,41.78-41.39,7.54,0,9.86,4.06,9.86,9.67,0,12.57-6.96,27.46-13.93,37.72-4.06,5.8-5.41,12.96-10.44,17.99l6.58,9.09c4.84,6.96,8.12,15.67,13.73,21.86.97-1.74,1.74-3.67,2.13-6,2.32-10.83,12.96-28.24,17.79-28.24-.19,5.03-4.64,8.7-6.19,13.15-3.09,8.51-4.25,17.6-7.74,27.08,9.09,9.48,18.57,16.83,31.72,17.41-.39,7.35-3.48,13.54-8.7,18.37Zm-55.32-23.79c4.45,0,11.03-3.87,16.44-7.54-6.96-10.83-12.38-22.05-19.73-32.11-6,5.8-12.77,12.77-12.77,21.66,0,5.42,2.9,10.06,6.77,13.73,2.9,2.9,6,4.26,9.28,4.26Zm.77-57.44c2.13-3.09,4.26-6.19,6.58-9.09,3.68-4.64,10.06-11.41,10.06-18.18s-8.7-13.54-17.41-13.54c-4.84,0-8.7,2.32-8.7,7.54,0,6.38,4.84,15.47,5.22,19.73.58,5.22,2.13,9.48,4.25,13.54Z"/>
  <path class="cls-1" d="m45.61,19.01s-15.55,10.16-14.36,21.33c-5.86-5.25-15.77-5.05-15.77-5.05,4.79,9.33,10.42,13.96,14.48,12.8,3.38-.96,4.84-.21,5.24.07.2.21.39.42.6.63,0,0,.07-2.41,6.84-4.94,6.77-2.53,8.35-11.87,2.97-24.84Z"/>
  <path class="cls-1" d="m261.31,153.23c6.94-20.96,30.12-35.59,59.91-39.19,21.05-44.42,15.34-93.48,15.34-93.48-21.96,12.51-68.48,35.1-131.49,36.54-70.24,1.6-122.1-23.98-144.16-36.54,0,0-20.48,165.39,137.03,163.81,24.55-.25,44.82-4.4,61.54-11.23-1.06-8.89.39-15.6,1.82-19.91Z"/>
  <path class="cls-1" d="m267.53,178.96c2.1-.09,5.21-.23,8.98-.41,11.11-.53,16.66-.79,17.76-.9,11.2-1.12,23.05-9.68,29.16-19.39,6.96-11.07,2.83-17.86,11.5-30.12,3.64-5.14,7.66-8.6,10.4-10.67-40.84-.82-72.52,15.85-78.83,39.04-1.3,4.77-2.19,12.27,1.03,22.44Z"/>
</svg>